<svg class="icon--3xiXX" width="50" height="50" viewBox="0 0 50 50" fill="none"><ellipse cx="25" cy="42" rx="25" ry="8" fill="#F2F3F5"></ellipse><path d="M40 14.8235C40 6.64588 33.275 0 25 0C16.725 0 10 6.64588 10 14.8235C10 25.9412 25 42 25 42C25 42 40 25.9412 40 14.8235ZM20 14.8235C20 12.1059 22.25 9.88235 25 9.88235C27.75 9.88235 30 12.1059 30 14.8235C30 16.134 29.4732 17.3908 28.5355 18.3175C27.5979 19.2441 26.3261 19.7647 25 19.7647C23.6739 19.7647 22.4021 19.2441 21.4645 18.3175C20.5268 17.3908 20 16.134 20 14.8235Z" fill="#5BC787"></path></svg>